# xmcd
#
# Track frame offsets:
#	150
#	14203
#	28413
#	41360
#	60503
#	78545
#	90838
#	105380
#	123590
#	142098
#	156000
#	167955
#	187250
#
# Disc length: 2724 seconds
# Revision: 0
# Processed by: cddbd v1.5.2PL0 Copyright (c) Steve Scherf et al.
# Submitted via: dBpowerAMP V12.0
#
DISCID=b10aa20d
DTITLE=Michael Ballew - Yesterday's WInd
DYEAR=1993
DGENRE=Country
TTITLE0=Songs On The Radio
TTITLE1=Dial In Country
TTITLE2=If I Didn't Know How
TTITLE3=Where Are The Rangers
TTITLE4=Still Waters Run Deep
TTITLE5=All Alone In San Antonio
TTITLE6=I Can't Do That (Anymore)
TTITLE7=I Thought You Were My Friend
TTITLE8=Top Of The World
TTITLE9=I Love To Ride
TTITLE10=Damned Ol' Beer
TTITLE11=Heavy On The Blues
TTITLE12=The Pleasure Ain't Worth The Pain
EXTD=
EXTT0=
EXTT1=
EXTT2=
EXTT3=
EXTT4=
EXTT5=
EXTT6=
EXTT7=
EXTT8=
EXTT9=
EXTT10=
EXTT11=
EXTT12=
PLAYORDER=
